<?xml version="1.0" encoding="utf-8"?>
<!-- Generator: Adobe Illustrator 21.0.2, SVG Export Plug-In . SVG Version: 6.00 Build 0)  -->
<svg version="1.1" xmlns="http://www.w3.org/2000/svg" xmlns:xlink="http://www.w3.org/1999/xlink" x="0px" y="0px"
	 viewBox="0 0 328 139.8" style="enable-background:new 0 0 328 139.8;" xml:space="preserve">
<style type="text/css">
	.st0{fill:#FFFFFF;stroke:#489C97;stroke-width:5;stroke-miterlimit:10;}
	.st1{fill:#D0D0D4;}
	.st2{fill:#8EBD00;}
	.st3{opacity:0.1;clip-path:url(#SVGID_2_);fill:#134200;}
	.st4{fill:#FFFFFF;}
	.st5{fill:#262626;}
	.st6{fill:#BABABD;}
</style>
<g id="Layer_1">
</g>
<g id="Layer_2">
	<g>
		<path class="st0" d="M278.8,23.3H118.5C106.2,10.5,89,2.5,69.9,2.5C32.7,2.5,2.5,32.7,2.5,69.9s30.2,67.4,67.4,67.4
			c19.1,0,36.4-8,48.6-20.8h160.3c25.8,0,46.6-20.9,46.6-46.6v0C325.5,44.1,304.6,23.3,278.8,23.3z"/>
		<g>
			<g>
				<g>
					<g>
						<path class="st1" d="M98.1,60.4h-9.7V53c0-10.2-8.3-18.5-18.5-18.5c-10.2,0-18.5,8.3-18.5,18.5v7.4h-9.7V53
							c0-15.6,12.7-28.2,28.2-28.2c15.6,0,28.2,12.7,28.2,28.2V60.4z"/>
						<path class="st2" d="M69.9,114.8L69.9,114.8c-17.6,0-31.9-14.3-31.9-31.9V63.6c0-1.8,1.5-3.3,3.3-3.3h57.2
							c1.8,0,3.3,1.5,3.3,3.3v19.3C101.8,100.5,87.5,114.8,69.9,114.8z"/>
						<g>
							<defs>
								<path id="SVGID_1_" d="M98.1,60.2V54c0.4-16.1-11.8-28.2-26.3-29.1c-16.4-1.1-30.1,12-30.1,28.1v7.2h-1.2
									c-1.4,0-2.5,1.1-2.5,2.5v20.1c0,17.6,14.3,31.9,31.9,31.9h0c17.6,0,31.9-14.3,31.9-31.9V62.8c0-1.4-1.1-2.5-2.5-2.5H98.1z
									 M51.4,53c0-10.2,8.3-18.5,18.5-18.5c10.2,0,18.5,8.3,18.5,18.5v7.2H51.4V53z"/>
							</defs>
							<clipPath id="SVGID_2_">
								<use xlink:href="#SVGID_1_"  style="overflow:visible;"/>
							</clipPath>
							<rect x="69.9" y="60.2" class="st3" width="31.9" height="54.6"/>
						</g>
					</g>
				</g>
				<polygon class="st4" points="67,98.4 52.1,84.3 58.4,78.3 67,86.4 84.3,70.2 90.7,76.2 				"/>
			</g>
			<g>
				<path class="st5" d="M141.3,61c-1-0.4-1.8-0.8-2.6-1.2c-0.8-0.4-1.4-1-1.9-1.6c-0.5-0.6-1-1.3-1.2-2.2c-0.3-0.8-0.4-1.9-0.4-3
					c0-1.4,0.2-2.7,0.7-3.8c0.5-1.1,1.2-2,2.1-2.8c0.9-0.7,2-1.3,3.3-1.7c1.3-0.4,2.7-0.6,4.3-0.6c1.4,0,2.8,0.1,4,0.4
					c1.3,0.3,2.6,0.6,3.9,1.1c-0.2,1.6-0.6,3.2-1.4,4.8c-0.4-0.2-0.9-0.3-1.3-0.5c-0.4-0.2-0.9-0.3-1.4-0.4c-0.5-0.1-1-0.2-1.7-0.3
					c-0.6-0.1-1.3-0.1-2.1-0.1c-0.5,0-1,0-1.5,0.1c-0.5,0.1-0.9,0.2-1.3,0.5c-0.4,0.2-0.7,0.6-1,1c-0.3,0.4-0.4,1-0.4,1.7
					c0,0.6,0.1,1,0.3,1.4c0.2,0.4,0.5,0.7,0.8,1c0.3,0.3,0.7,0.5,1.1,0.7c0.4,0.2,0.8,0.4,1.3,0.5l2.5,1c1.1,0.4,2,0.9,2.9,1.3
					c0.9,0.5,1.6,1,2.2,1.7c0.6,0.7,1.1,1.5,1.4,2.4c0.3,0.9,0.5,2.1,0.5,3.5c0,1.4-0.3,2.7-0.8,3.9c-0.5,1.2-1.3,2.2-2.3,3
					c-1,0.8-2.2,1.5-3.7,2c-1.5,0.5-3.1,0.7-5,0.7c-0.9,0-1.8,0-2.5-0.1c-0.7-0.1-1.4-0.1-2.1-0.3c-0.7-0.1-1.3-0.3-2-0.5
					c-0.6-0.2-1.3-0.4-2-0.7c0.1-0.8,0.2-1.7,0.5-2.6c0.2-0.9,0.5-1.8,0.8-2.7c1.2,0.5,2.3,0.8,3.3,1.1c1,0.2,2.2,0.4,3.3,0.4
					c1.8,0,3.2-0.3,4.2-1c1-0.7,1.5-1.7,1.5-3c0-0.7-0.1-1.2-0.4-1.7c-0.2-0.4-0.5-0.8-0.9-1.1c-0.4-0.3-0.8-0.6-1.3-0.8
					c-0.5-0.2-1-0.4-1.5-0.6L141.3,61z"/>
				<path class="st5" d="M159,44.7h17.2c0.2,0.8,0.3,1.7,0.3,2.6c0,0.9-0.1,1.8-0.3,2.7h-11.1v6.6h8.8c0.2,0.9,0.3,1.8,0.3,2.6
					c0,0.9-0.1,1.8-0.3,2.7h-8.8v8h11.4c0.2,0.8,0.3,1.7,0.3,2.6c0,0.9-0.1,1.8-0.3,2.7H159V44.7z"/>
				<path class="st5" d="M201.5,69.3c0.4,0.8,0.7,1.6,0.9,2.4c0.2,0.8,0.4,1.7,0.5,2.5c-1.5,0.5-2.8,0.9-3.9,1.1
					c-1.2,0.2-2.4,0.3-3.8,0.3c-2.4,0-4.5-0.4-6.3-1.2c-1.8-0.8-3.3-1.9-4.5-3.3c-1.2-1.4-2.1-3-2.8-5c-0.6-1.9-0.9-4-0.9-6.3
					c0-2.3,0.3-4.3,1-6.3c0.6-1.9,1.6-3.6,2.8-5c1.2-1.4,2.7-2.5,4.5-3.3c1.8-0.8,3.8-1.2,6.1-1.2c1.4,0,2.6,0.1,3.7,0.3
					c1.1,0.2,2.4,0.5,3.7,1.1c-0.1,0.8-0.2,1.7-0.5,2.5c-0.3,0.8-0.6,1.6-0.9,2.4c-1-0.3-1.9-0.6-2.6-0.7c-0.8-0.1-1.7-0.2-2.7-0.2
					c-2.7,0-4.8,0.9-6.2,2.6c-1.5,1.8-2.2,4.4-2.2,7.8c0,6.9,2.9,10.3,8.7,10.3c1,0,2-0.1,2.7-0.2C199.6,69.9,200.5,69.6,201.5,69.3
					z"/>
				<path class="st5" d="M207.3,44.7c0.5-0.1,1.1-0.1,1.6-0.2c0.5,0,1,0,1.6,0c0.5,0,1,0,1.5,0c0.5,0,1,0.1,1.6,0.2v15.8
					c0,1.7,0.1,3.2,0.2,4.4c0.1,1.2,0.4,2.2,0.8,3c0.4,0.8,0.9,1.4,1.6,1.8c0.7,0.4,1.6,0.6,2.7,0.6c1.1,0,2-0.2,2.7-0.6
					c0.7-0.4,1.2-1,1.6-1.8c0.4-0.8,0.6-1.8,0.8-3c0.1-1.2,0.2-2.7,0.2-4.4V44.7c0.6-0.1,1.1-0.1,1.6-0.2c0.5,0,1,0,1.5,0
					c0.5,0,1,0,1.5,0c0.5,0,1,0.1,1.6,0.2v17.1c0,2.1-0.2,3.9-0.5,5.6c-0.3,1.7-0.9,3.2-1.8,4.4c-0.9,1.2-2,2.1-3.5,2.8
					c-1.5,0.7-3.3,1-5.6,1c-2.3,0-4.1-0.3-5.6-1c-1.5-0.7-2.6-1.6-3.5-2.8c-0.9-1.2-1.5-2.7-1.8-4.4c-0.3-1.7-0.5-3.6-0.5-5.6V44.7z
					"/>
				<path class="st5" d="M236.1,44.7c1.2-0.1,2.4-0.3,3.5-0.4c1.1-0.1,2.3-0.1,3.6-0.1c1.5,0,3.1,0.1,4.6,0.4
					c1.5,0.3,2.9,0.8,4.1,1.5c1.2,0.7,2.2,1.7,2.9,2.9c0.7,1.2,1.1,2.8,1.1,4.7c0,1.1-0.1,2.1-0.4,3c-0.3,0.9-0.6,1.6-1.1,2.3
					c-0.4,0.6-0.9,1.2-1.4,1.7c-0.5,0.5-1,0.8-1.4,1.1l-0.7,0.5l7.4,12.8c-0.6,0.1-1.2,0.1-1.8,0.2c-0.6,0.1-1.3,0.1-1.9,0.1
					c-1.1,0-2.1-0.1-3.2-0.3l-7.9-14.1l1-0.5c0.4-0.2,0.9-0.5,1.4-0.8c0.6-0.3,1.1-0.7,1.6-1.2c0.5-0.5,1-1,1.3-1.7
					c0.4-0.7,0.5-1.4,0.5-2.3c0-1.8-0.5-3.1-1.5-3.9c-1-0.8-2.3-1.2-3.9-1.2c-0.6,0-1.2,0-1.7,0.1V75c-0.5,0.1-1,0.1-1.5,0.1
					c-0.5,0-1,0.1-1.5,0.1c-0.5,0-1,0-1.5,0c-0.5,0-1.1-0.1-1.6-0.2V44.7z"/>
				<path class="st5" d="M261.6,44.7h17.2c0.2,0.8,0.3,1.7,0.3,2.6c0,0.9-0.1,1.8-0.3,2.7h-11.1v6.6h8.8c0.2,0.9,0.3,1.8,0.3,2.6
					c0,0.9-0.1,1.8-0.3,2.7h-8.8v8h11.4c0.2,0.8,0.3,1.7,0.3,2.6c0,0.9-0.1,1.8-0.3,2.7h-17.5V44.7z"/>
			</g>
			<g>
				<path class="st6" d="M137.3,90.7c-0.4-0.2-0.8-0.4-1.2-0.6c-0.3-0.2-0.6-0.4-0.9-0.7c-0.2-0.3-0.4-0.6-0.6-1
					c-0.1-0.4-0.2-0.8-0.2-1.4c0-0.7,0.1-1.2,0.3-1.7c0.2-0.5,0.5-0.9,1-1.3c0.4-0.3,0.9-0.6,1.5-0.8c0.6-0.2,1.2-0.3,2-0.3
					c0.7,0,1.3,0.1,1.8,0.2c0.6,0.1,1.2,0.3,1.8,0.5c-0.1,0.7-0.3,1.5-0.6,2.2c-0.2-0.1-0.4-0.2-0.6-0.2c-0.2-0.1-0.4-0.1-0.6-0.2
					c-0.2-0.1-0.5-0.1-0.8-0.1c-0.3,0-0.6,0-1,0c-0.2,0-0.4,0-0.7,0.1c-0.2,0-0.4,0.1-0.6,0.2c-0.2,0.1-0.3,0.3-0.4,0.5
					c-0.1,0.2-0.2,0.5-0.2,0.8c0,0.3,0,0.5,0.1,0.6c0.1,0.2,0.2,0.3,0.4,0.4c0.2,0.1,0.3,0.2,0.5,0.3c0.2,0.1,0.4,0.2,0.6,0.2
					l1.2,0.4c0.5,0.2,0.9,0.4,1.3,0.6c0.4,0.2,0.7,0.5,1,0.8c0.3,0.3,0.5,0.7,0.6,1.1c0.2,0.4,0.2,1,0.2,1.6c0,0.7-0.1,1.3-0.4,1.8
					c-0.2,0.5-0.6,1-1,1.4c-0.5,0.4-1,0.7-1.7,0.9c-0.7,0.2-1.4,0.3-2.3,0.3c-0.4,0-0.8,0-1.1,0c-0.3,0-0.7-0.1-1-0.1
					c-0.3-0.1-0.6-0.1-0.9-0.2c-0.3-0.1-0.6-0.2-0.9-0.3c0-0.4,0.1-0.8,0.2-1.2c0.1-0.4,0.2-0.8,0.4-1.2c0.5,0.2,1,0.4,1.5,0.5
					c0.5,0.1,1,0.2,1.5,0.2c0.8,0,1.4-0.2,1.9-0.5c0.5-0.3,0.7-0.8,0.7-1.4c0-0.3-0.1-0.6-0.2-0.8c-0.1-0.2-0.3-0.4-0.4-0.5
					c-0.2-0.1-0.4-0.3-0.6-0.4c-0.2-0.1-0.4-0.2-0.7-0.3L137.3,90.7z"/>
				<path class="st6" d="M147.4,90.7c-0.4-0.2-0.8-0.4-1.2-0.6c-0.3-0.2-0.6-0.4-0.9-0.7c-0.2-0.3-0.4-0.6-0.6-1
					c-0.1-0.4-0.2-0.8-0.2-1.4c0-0.7,0.1-1.2,0.3-1.7c0.2-0.5,0.5-0.9,1-1.3c0.4-0.3,0.9-0.6,1.5-0.8c0.6-0.2,1.2-0.3,2-0.3
					c0.7,0,1.3,0.1,1.8,0.2c0.6,0.1,1.2,0.3,1.8,0.5c-0.1,0.7-0.3,1.5-0.6,2.2c-0.2-0.1-0.4-0.2-0.6-0.2c-0.2-0.1-0.4-0.1-0.6-0.2
					c-0.2-0.1-0.5-0.1-0.8-0.1c-0.3,0-0.6,0-1,0c-0.2,0-0.4,0-0.7,0.1c-0.2,0-0.4,0.1-0.6,0.2c-0.2,0.1-0.3,0.3-0.4,0.5
					c-0.1,0.2-0.2,0.5-0.2,0.8c0,0.3,0,0.5,0.1,0.6c0.1,0.2,0.2,0.3,0.4,0.4c0.2,0.1,0.3,0.2,0.5,0.3c0.2,0.1,0.4,0.2,0.6,0.2
					l1.2,0.4c0.5,0.2,0.9,0.4,1.3,0.6c0.4,0.2,0.7,0.5,1,0.8c0.3,0.3,0.5,0.7,0.6,1.1c0.2,0.4,0.2,1,0.2,1.6c0,0.7-0.1,1.3-0.4,1.8
					c-0.2,0.5-0.6,1-1,1.4c-0.5,0.4-1,0.7-1.7,0.9c-0.7,0.2-1.4,0.3-2.3,0.3c-0.4,0-0.8,0-1.1,0c-0.3,0-0.7-0.1-1-0.1
					c-0.3-0.1-0.6-0.1-0.9-0.2c-0.3-0.1-0.6-0.2-0.9-0.3c0-0.4,0.1-0.8,0.2-1.2c0.1-0.4,0.2-0.8,0.4-1.2c0.5,0.2,1,0.4,1.5,0.5
					c0.5,0.1,1,0.2,1.5,0.2c0.8,0,1.4-0.2,1.9-0.5c0.5-0.3,0.7-0.8,0.7-1.4c0-0.3-0.1-0.6-0.2-0.8c-0.1-0.2-0.3-0.4-0.4-0.5
					c-0.2-0.1-0.4-0.3-0.6-0.4c-0.2-0.1-0.4-0.2-0.7-0.3L147.4,90.7z"/>
				<path class="st6" d="M155.5,83.2c0.5-0.1,0.9-0.1,1.4-0.1c0.5,0,0.9,0,1.4,0.1v11.5h4.8c0,0.2,0.1,0.4,0.1,0.6
					c0,0.2,0,0.4,0,0.6c0,0.2,0,0.4,0,0.6c0,0.2,0,0.4-0.1,0.6h-7.6V83.2z"/>
				<path class="st6" d="M169.3,83.2h7.9c0.1,0.4,0.1,0.8,0.1,1.2c0,0.4,0,0.8-0.1,1.2h-5.1v3h4c0.1,0.4,0.1,0.8,0.1,1.2
					c0,0.4,0,0.8-0.1,1.2h-4v3.7h5.2c0.1,0.4,0.1,0.8,0.1,1.2c0,0.4,0,0.8-0.1,1.2h-8V83.2z"/>
				<path class="st6" d="M179.5,83.2c0.4-0.1,0.8-0.1,1.1-0.1c0.4,0,0.8,0,1.2,0.1l5.4,8.8v-8.8c0.5-0.1,0.9-0.1,1.3-0.1
					c0.4,0,0.8,0,1.2,0.1v13.9c-0.4,0.1-0.8,0.1-1.1,0.1c-0.4,0-0.8,0-1.2-0.1l-5.4-8.8v8.8c-0.4,0.1-0.8,0.1-1.3,0.1
					c-0.4,0-0.8,0-1.2-0.1V83.2z"/>
				<path class="st6" d="M201.6,94.5c0.2,0.4,0.3,0.7,0.4,1.1c0.1,0.4,0.2,0.8,0.2,1.1c-0.7,0.2-1.3,0.4-1.8,0.5
					c-0.5,0.1-1.1,0.1-1.7,0.1c-1.1,0-2.1-0.2-2.9-0.5c-0.8-0.4-1.5-0.8-2.1-1.5c-0.6-0.6-1-1.4-1.3-2.3c-0.3-0.9-0.4-1.8-0.4-2.9
					c0-1,0.1-2,0.4-2.9c0.3-0.9,0.7-1.6,1.3-2.3c0.6-0.6,1.2-1.1,2.1-1.5c0.8-0.4,1.7-0.5,2.8-0.5c0.6,0,1.2,0,1.7,0.1
					c0.5,0.1,1.1,0.2,1.7,0.5c0,0.4-0.1,0.8-0.2,1.1c-0.1,0.4-0.3,0.7-0.4,1.1c-0.5-0.2-0.8-0.3-1.2-0.3c-0.3-0.1-0.8-0.1-1.2-0.1
					c-1.2,0-2.2,0.4-2.8,1.2c-0.7,0.8-1,2-1,3.6c0,3.1,1.3,4.7,4,4.7c0.5,0,0.9,0,1.3-0.1C200.7,94.7,201.1,94.6,201.6,94.5z"/>
				<path class="st6" d="M204.5,83.2c0.6-0.1,1.1-0.1,1.6-0.2c0.5,0,1-0.1,1.7-0.1c0.7,0,1.4,0.1,2.1,0.2c0.7,0.1,1.3,0.4,1.9,0.7
					c0.6,0.3,1,0.8,1.3,1.3c0.3,0.6,0.5,1.3,0.5,2.1c0,0.5-0.1,1-0.2,1.4c-0.1,0.4-0.3,0.7-0.5,1c-0.2,0.3-0.4,0.5-0.6,0.8
					c-0.2,0.2-0.5,0.4-0.7,0.5l-0.3,0.2l3.4,5.9c-0.3,0-0.5,0.1-0.8,0.1c-0.3,0-0.6,0-0.9,0c-0.5,0-1,0-1.4-0.1l-3.6-6.5l0.5-0.2
					c0.2-0.1,0.4-0.2,0.7-0.3c0.3-0.1,0.5-0.3,0.7-0.5c0.2-0.2,0.4-0.5,0.6-0.8c0.2-0.3,0.3-0.7,0.3-1.1c0-0.8-0.2-1.4-0.7-1.8
					c-0.5-0.4-1.1-0.6-1.8-0.6c-0.3,0-0.5,0-0.8,0.1v11.7c-0.2,0-0.5,0-0.7,0.1c-0.2,0-0.5,0-0.7,0c-0.2,0-0.5,0-0.7,0
					c-0.2,0-0.5,0-0.8-0.1V83.2z"/>
				<path class="st6" d="M218.9,92.1l-4.3-8.9c0.5-0.1,1.1-0.1,1.6-0.1c0.5,0,1,0,1.5,0.1l2.7,6.3l2.7-6.3c0.5-0.1,1-0.1,1.5-0.1
					c0.5,0,1,0,1.5,0.1l-4.3,8.9v5c-0.3,0-0.5,0.1-0.7,0.1c-0.2,0-0.5,0-0.7,0c-0.2,0-0.4,0-0.7,0c-0.2,0-0.5,0-0.7-0.1V92.1z"/>
				<path class="st6" d="M227.6,83.1c0.6-0.1,1.2-0.1,1.8-0.1c0.6,0,1.2,0,1.8,0c0.6,0,1.3,0.1,2,0.2s1.3,0.4,1.8,0.7
					c0.5,0.4,1,0.8,1.3,1.5c0.3,0.6,0.5,1.4,0.5,2.5s-0.2,1.8-0.5,2.4c-0.3,0.6-0.8,1.1-1.3,1.5c-0.5,0.4-1.1,0.6-1.8,0.7
					c-0.7,0.1-1.3,0.2-1.9,0.2c-0.2,0-0.3,0-0.5,0c-0.1,0-0.3,0-0.4,0v4.5c-0.2,0-0.5,0.1-0.7,0.1c-0.2,0-0.5,0-0.7,0
					c-0.2,0-0.4,0-0.7,0c-0.2,0-0.5,0-0.8-0.1V83.1z M230.5,90.3c0.2,0,0.3,0,0.4,0c0.1,0,0.3,0,0.5,0c0.3,0,0.6,0,0.9-0.1
					c0.3-0.1,0.6-0.2,0.8-0.4c0.2-0.2,0.4-0.4,0.6-0.8c0.1-0.3,0.2-0.7,0.2-1.2c0-0.5-0.1-0.9-0.2-1.2c-0.1-0.3-0.3-0.6-0.6-0.8
					c-0.2-0.2-0.5-0.3-0.8-0.4c-0.3-0.1-0.6-0.1-0.9-0.1c-0.1,0-0.3,0-0.4,0s-0.3,0-0.5,0V90.3z"/>
				<path class="st6" d="M241.6,85.6h-3.5c-0.1-0.4-0.1-0.8-0.1-1.2c0-0.4,0-0.8,0.1-1.2h9.8c0.1,0.4,0.1,0.8,0.1,1.2
					c0,0.4,0,0.8-0.1,1.2h-3.5v11.5c-0.2,0-0.5,0-0.7,0.1c-0.2,0-0.5,0-0.7,0c-0.2,0-0.5,0-0.7,0c-0.3,0-0.5,0-0.8-0.1V85.6z"/>
				<path class="st6" d="M249.8,83.2c0.5-0.1,0.9-0.1,1.4-0.1c0.5,0,0.9,0,1.4,0.1v13.9c-0.5,0.1-1,0.1-1.4,0.1c-0.5,0-1,0-1.4-0.1
					V83.2z"/>
				<path class="st6" d="M261,97.3c-1,0-1.9-0.2-2.7-0.5c-0.8-0.4-1.4-0.9-1.9-1.5c-0.5-0.6-0.9-1.4-1.1-2.3
					c-0.2-0.9-0.4-1.8-0.4-2.8c0-1,0.1-2,0.4-2.9c0.2-0.9,0.6-1.6,1.1-2.3c0.5-0.6,1.1-1.1,1.9-1.5c0.8-0.4,1.7-0.5,2.7-0.5
					c1,0,1.9,0.2,2.7,0.5c0.8,0.4,1.4,0.9,1.9,1.5c0.5,0.6,0.9,1.4,1.1,2.3c0.2,0.9,0.4,1.8,0.4,2.9c0,1-0.1,2-0.4,2.8
					c-0.2,0.9-0.6,1.6-1.1,2.3c-0.5,0.6-1.1,1.1-1.9,1.5C263,97.1,262.1,97.3,261,97.3z M261,95c2,0,3-1.6,3-4.8
					c0-1.6-0.2-2.8-0.7-3.6c-0.5-0.8-1.2-1.2-2.3-1.2c-2,0-3,1.6-3,4.8C258,93.4,259,95,261,95z"/>
				<path class="st6" d="M269.4,83.2c0.4-0.1,0.8-0.1,1.1-0.1c0.4,0,0.8,0,1.2,0.1l5.4,8.8v-8.8c0.5-0.1,0.9-0.1,1.3-0.1
					c0.4,0,0.8,0,1.2,0.1v13.9c-0.4,0.1-0.8,0.1-1.1,0.1c-0.4,0-0.8,0-1.2-0.1l-5.4-8.8v8.8c-0.4,0.1-0.8,0.1-1.3,0.1
					s-0.8,0-1.2-0.1V83.2z"/>
			</g>
		</g>
	</g>
</g>
</svg>
